<?xml version="1.0" encoding="UTF-8"?>
<svg id="Wikio_AI_favicon_black" xmlns="http://www.w3.org/2000/svg" viewBox="0 0 512 512">
  <defs>
    <style>
      .cls-1 {
        fill: #fff;
      }

      .cls-2 {
        fill: #1f202c;
      }
    </style>
  </defs>
  <rect class="cls-2" x="0" y="0" width="512" height="512" rx="38.4" ry="38.4"/>
  <path class="cls-1" d="m349.36,145.8c-35.52,24.92-55.71,48.38-94.58,90.12,2.54,2.62,5.07,5.18,7.57,7.8,34.45-34.47,159.48-159.4,158.04-47.76-1.27,31.78-11.41,63.71-25.55,92.89-5.44,11.22-11.81,21.92-18.49,32.44-13.65,21.48-35.47,54.37-55.09,33.99-27.92-26.83-192.31-245.16-246.61-177.01-4.37,5.49-7.05,12.26-7.85,19.23-3.11,26.97,11.2,61.03,23.09,81.03,24.72,42.08,70.37,75.68,111.73,26.06-2.49-2.69-5.03-5.32-7.56-7.95-34.16,39.61-69.3,7.92-88.48-27.74-11.92-18.58-38.01-94.77,6.98-77.5,36.23,15.21,67.17,47.58,95.51,75.46,34.18,33.95,63.02,72.75,96.1,108.04,59.73,52.98,113.72-67.42,128.97-112.29,27.24-76.99,14.45-185.71-83.77-116.81Z"/>
</svg>