<?xml version="1.0" encoding="UTF-8"?>
<svg id="Wikio_AI_logo_black" xmlns="http://www.w3.org/2000/svg" viewBox="0 0 578 100">
  <defs>
    <style>
      .cls-1 {
        fill: #1f202c;
      }
    </style>
  </defs>
  <path class="cls-1" d="m541.25,9.96c-12.91,9.05-20.24,17.58-34.36,32.74.92.95,1.84,1.88,2.75,2.83,12.52-12.52,57.94-57.91,57.42-17.35-.46,11.54-4.14,23.15-9.28,33.75-1.98,4.08-4.29,7.96-6.72,11.79-4.96,7.8-12.89,19.75-20.01,12.35-10.14-9.75-69.87-89.07-89.6-64.31-1.59,1.99-2.56,4.45-2.85,6.99-1.13,9.8,4.07,22.17,8.39,29.44,8.98,15.29,25.56,27.5,40.59,9.47-.9-.98-1.83-1.93-2.75-2.89-12.41,14.39-25.18,2.88-32.14-10.08-4.33-6.75-13.81-34.43,2.53-28.16,13.16,5.53,24.4,17.29,34.7,27.42,12.42,12.34,22.9,26.43,34.92,39.25,21.7,19.25,41.32-24.49,46.86-40.8,9.9-27.97,5.25-67.47-30.44-42.44Z"/>
  <g>
    <g>
      <path class="cls-1" d="m310.81,73.9c-.23.56-.68.85-1.3.85h-7.75c-.85,0-1.13-.45-.79-1.19l14.15-34.07c3.45-8.2,9.79-13.41,17.32-13.41h4.19c7.53,0,13.86,5.15,17.32,13.41l14.2,34.07c.34.74.06,1.19-.79,1.19h-7.75c-.62,0-1.02-.29-1.25-.85l-3.68-9h-40.23l-3.62,9Zm6.79-16.58h33.89l-5.94-14.49c-2.49-6.11-5.77-8.54-9.73-8.54h-2.6c-3.96,0-7.18,2.43-9.68,8.49l-5.94,14.54Z"/>
      <path class="cls-1" d="m376.85,27.32c0-.74.34-1.08,1.02-1.08h6.96c.68,0,1.02.34,1.02,1.08v45.78c0,.74-.34,1.08-1.02,1.08h-6.96c-.68,0-1.02-.34-1.02-1.08V27.32Z"/>
    </g>
    <path class="cls-1" d="m399.34,67.05c0-4.64,3.71-8.35,8.32-8.35s8.28,3.71,8.28,8.35-3.71,8.39-8.28,8.39-8.32-3.74-8.32-8.39Zm14.83,0c0-3.67-2.88-6.65-6.52-6.65s-6.55,2.98-6.55,6.65,2.88,6.69,6.55,6.69,6.52-2.98,6.52-6.69Zm-9.32,4.06v-8.28h2.91c1.84,0,3.12.94,3.12,2.56,0,1.07-.59,1.84-1.63,2.18.55.28.83.8,1.25,1.63l.87,1.91h-1.8l-.62-1.49c-.48-1.07-.9-1.39-1.91-1.39h-.66v2.88h-1.52Zm1.52-6.76v2.5h1.18c1.07,0,1.73-.38,1.73-1.25,0-.8-.55-1.25-1.52-1.25h-1.39Z"/>
    <g>
      <path class="cls-1" d="m119.33,26.77h-7.08c-.41,0-.64.11-.64.7v46.59c0,.59.22.7.64.7h7.08c.41,0,.64-.11.64-.7V27.46c0-.59-.22-.7-.64-.7Z"/>
      <g>
        <path class="cls-1" d="m188.33,26.56l-33.43,13.49c-4.11,1.64-6.37,4.84-6.37,9.02v3.4c0,4.21,2.32,7.43,6.54,9.07l33.23,13.48c.17.09.27.09.43.09.07,0,.23,0,.23-.58v-7.08c0-.46-.17-.7-.58-.83h-.03s-27.41-10.32-27.41-10.32c-3.88-1.54-5.38-2.91-5.38-4.87v-1.27c0-1.95,1.52-3.33,5.43-4.92l27.36-10.26c.43-.17.6-.43.6-.89v-7.02c0-.58-.16-.58-.23-.58-.15,0-.25,0-.4.07Z"/>
        <path class="cls-1" d="m141.51,26.77h-7.08c-.41,0-.64.11-.64.7v46.64c0,.61.31.69.64.69h7.08c.33,0,.64-.08.64-.69V27.46c0-.59-.22-.7-.64-.7Z"/>
      </g>
      <path class="cls-1" d="m208.19,26.77h-7.08c-.41,0-.64.11-.64.7v46.59c0,.59.22.7.64.7h7.08c.41,0,.64-.11.64-.7V27.46c0-.59-.22-.7-.64-.7Z"/>
      <path class="cls-1" d="m251.15,75.44c21.31,0,31.68-8.08,31.68-24.71s-10.07-24.71-31.68-24.71c-12.23,0-20.68,2.51-25.82,7.66-4.01,4.02-5.94,9.6-5.92,17.05h0c0,16.63,10.38,24.71,31.73,24.71Zm.06-41.86c16.37,0,22.74,4.81,22.74,17.16s-6.39,17.16-22.8,17.16-22.68-4.81-22.68-17.16,6.38-17.16,22.74-17.16Z"/>
      <path class="cls-1" d="m99.52,26.77h-7.02c-.46,0-.72.18-.89.59l-12.11,35.61c-1.59,3.91-2.96,5.43-4.92,5.43h-1.27c-1.96,0-3.33-1.51-4.87-5.39l-13.18-35.67c-.12-.41-.37-.58-.83-.58h-7c-.46,0-.7.17-.83.58l-13.18,35.67c-1.54,3.88-2.91,5.39-4.87,5.39h-1.27c-1.95,0-3.33-1.52-4.92-5.43L10.27,27.36c-.17-.41-.43-.59-.89-.59H2.36c-.58,0-.58.16-.58.23,0,.15,0,.25.07.4l15.34,41.67c1.64,4.1,4.84,6.36,9.01,6.36h3.4c4.21,0,7.43-2.32,9.07-6.54l12.27-31.13,12.27,31.13c1.64,4.22,4.87,6.54,9.07,6.54h3.4c4.17,0,7.37-2.26,9.01-6.36l15.34-41.67c.07-.15.07-.25.07-.4,0-.08,0-.23-.58-.23Z"/>
    </g>
  </g>
</svg>